# This file uses centimeters as units for non-parametric coordinates.

mtllib tower5.mtl
g default
v 3.303739 12.067692 2.398056
v 3.303739 12.067692 0.519752
v 2.799298 11.403839 0.256257
v 2.799298 11.403839 2.661550
v 6.899622 12.067692 2.398056
v 6.899622 13.311046 2.398056
v 3.303739 13.311046 2.398056
v 6.899622 13.311046 0.519752
v 3.303739 13.311046 0.519752
v 7.404064 11.403839 2.661550
v 2.799298 9.202920 0.256257
v 2.799298 9.202920 2.661550
v 6.899622 12.067692 0.519752
v 7.945696 8.594352 3.031403
v 2.439667 7.032582 2.849403
v 2.257666 7.032582 3.031403
v 4.960887 9.974377 0.527828
v 5.531551 10.976995 0.527828
v 4.931520 10.976995 0.527828
v 2.439667 6.622995 2.849403
v 7.763695 8.184765 2.849403
v 2.257666 6.622995 3.031403
v 2.439667 8.847756 0.068404
v 2.439667 8.847756 2.849403
v 5.046116 9.807107 0.527828
v 5.178862 9.674361 0.527828
v 5.346131 9.589133 0.527828
v 6.131582 10.976994 0.527828
v 6.102215 9.974377 0.527828
v 5.531551 9.559766 0.527828
v 5.716971 9.589133 0.527828
v 7.763695 8.594352 2.849403
v 6.016987 9.807107 0.527828
v 5.884241 9.674361 0.527828
v 7.945696 8.184765 3.031403
v 4.931520 10.976995 2.661550
v 4.960887 9.974377 2.661550
v 7.404064 11.403839 0.256257
v 2.439667 7.032582 0.068404
v 7.763695 8.847756 2.849403
v 7.404064 9.202920 2.661550
v 5.046116 9.807107 2.661550
v 7.763695 8.594352 0.068404
v 2.257666 7.032582 -0.113596
v 5.178862 9.674361 2.661550
v 7.945696 8.184765 -0.113596
v 2.439667 6.622995 0.068404
v 2.257666 6.622995 -0.113596
v 5.346131 9.589133 2.661550
v 6.102215 9.974377 2.661550
v 6.131582 10.976994 2.661550
v 5.531551 9.559766 2.661550
v 7.945696 8.594352 -0.113596
v 5.716971 9.589133 2.661550
v 7.763695 8.184765 0.068404
v 7.404064 9.202920 0.256257
v 6.016987 9.807107 2.661550
v 5.884241 9.674361 2.661550
v 7.763695 8.847756 0.068404
v -1.166281 3.208388 -2.302338
v 1.026530 3.623704 -0.060979
v 1.020185 3.208388 -0.058448
v -1.163584 3.623704 -2.308617
v -0.785361 4.788228 -3.189267
v 1.916316 5.149212 -0.416100
v 1.916688 4.788228 -0.416249
v -0.785519 5.149212 -3.188901
v -1.764550 2.044193 -0.909337
v -0.376513 2.696365 0.498986
v -0.387858 2.044193 0.503515
v -4.299016 3.208388 -2.342948
v -1.759730 2.696365 -0.920560
v -0.837029 5.143765 -3.068966
v 1.778460 6.325870 -0.361081
v 1.795088 5.143765 -0.367717
v -0.302909 2.041522 0.469611
v -0.329385 2.041522 2.512115
v -0.310442 1.787645 0.472617
v 0.985855 3.623704 3.076986
v -0.463160 6.769946 -3.939478
v 2.674999 6.769946 -0.718898
v -0.844092 6.325870 -3.052518
v -3.737055 2.044193 -0.934903
v -2.381922 0.897388 0.528146
v -2.637505 0.076357 1.123241
v -1.840860 0.897388 1.083419
v -2.442380 0.076357 1.323491
v -4.656818 4.788228 -3.239450
v -2.917078 0.076357 1.119617
v -2.754250 -0.172125 1.395068
v -2.717142 -0.172125 1.433151
v -2.781666 -0.172125 1.458904
v -2.446004 0.076357 1.603065
v -2.807418 -0.172125 1.394380
v -2.717831 -0.172125 1.486320
v -0.336836 1.787645 2.508914
v -2.845501 -0.172125 1.431487
v -2.755914 -0.172125 1.523427
v -2.846190 -0.172125 1.484655
v -2.809082 -0.172125 1.522739
v -3.157149 0.897388 0.518098
v -1.850909 0.897388 1.858648
v 0.979576 3.208388 3.074289
v -4.301548 3.623704 -2.349292
v -3.117328 0.076357 1.314742
v -0.092248 8.983510 -4.803103
v 3.502244 9.518771 -1.049058
v 3.547946 8.983510 -1.067298
v -2.646254 0.076357 1.798188
v -4.608287 5.143765 -3.117850
v -3.741583 2.696365 -0.946250
v -0.111668 9.518771 -4.757887
v -5.011388 6.767623 -4.127854
v -0.421957 7.216915 -4.035415
v -0.407883 6.767623 -4.068181
v -3.712424 0.897388 1.059160
v 1.729754 6.325870 3.396476
v 2.771972 7.216915 -0.757600
v 2.712651 7.216915 3.818614
v 2.805092 6.767623 -0.770818
v -3.120952 0.076357 1.594316
v -2.406183 0.897388 2.399709
v -4.601650 6.325870 -3.101222
v -2.925827 0.076357 1.794564
v -4.656670 5.149212 -3.239077
v -0.158520 9.516725 -4.648796
v 3.309651 10.698337 -0.972192
v 3.391978 9.516725 -1.005049
v -3.722472 0.897388 1.834386
v -3.181409 0.897388 2.389661
v -0.193500 10.698337 -4.567350
v 1.746203 5.143765 3.403541
v -5.149906 2.044193 0.441787
v -5.307868 8.983510 -4.870709
v 2.594853 8.400943 -0.686909
v 2.537426 8.400943 3.743358
v 2.643190 7.209425 -0.706202
v -4.959467 6.769946 -3.997761
v -0.402203 2.696365 2.480840
v -1.821749 2.696365 3.864057
v -0.413426 2.044193 2.476020
v 2.745419 6.767623 3.832687
v -4.998169 7.216915 -4.094733
v 3.435124 9.518771 4.128902
v -6.542909 3.208388 -0.156481
v -1.826277 2.044193 3.852710
v -1.261784 3.623704 5.267097
v -5.245619 9.516725 -4.714740
v -5.161129 2.696365 0.436967
v 2.585245 7.209425 3.763894
v 3.244588 10.698337 4.047071
v 3.480341 8.983510 4.148322
v -5.289628 9.518771 -4.825007
v -7.429836 4.788228 -0.537402
v -6.549187 3.623704 -0.159178
v -1.264316 3.208388 5.260753
v 1.866138 5.149212 3.455051
v -0.906663 5.149212 6.156884
v 1.866504 4.788229 3.455209
v -5.175473 2.044193 2.414293
v -7.309534 5.143765 -0.485734
v -3.803602 2.696365 3.838367
v 3.326034 9.516725 4.082050
v -5.212762 10.698337 -4.632413
v -3.798782 2.044193 3.827144
v -5.186819 2.696365 2.418821
v -7.429470 5.149212 -0.537244
v -0.906515 4.788229 6.157254
v -0.565163 7.216915 7.012542
v -8.148577 7.209425 -0.846087
v -4.927480 8.400943 -3.917615
v -4.946771 7.209425 -3.965952
v -7.293086 6.325870 -0.478669
v -4.399748 3.623704 5.226424
v -0.635853 8.400943 6.835422
v 0.911733 3.212811 -0.015162
v -1.212361 3.212811 -2.195046
v -4.397051 3.208388 5.220145
v 1.805235 4.791228 -0.371766
v -0.832717 4.791228 -3.079005
v -9.043673 8.983510 -1.230515
v -1.209673 3.616235 -2.201304
v 0.918058 3.616235 -0.017688
v 1.795278 4.791387 -0.367793
v -0.836947 4.791387 -3.069156
v -0.395390 1.790317 0.506521
v -1.767750 1.790317 -0.901885
v -1.731656 1.787645 -0.985926
v -1.728456 2.041522 -0.993378
v -0.551945 6.767623 7.045661
v -0.273705 9.518771 7.742814
v -0.832803 5.143606 -3.078803
v 1.805032 5.143606 -0.371686
v 0.903605 4.449595 -0.011918
v -1.215814 4.449595 -2.187005
v -0.616561 7.209425 6.883760
v -8.100758 8.400943 -0.825551
v -1.642588 1.365877 1.004287
v -2.297678 1.365877 0.331992
v -0.350570 10.698337 7.550222
v -7.358419 5.143765 3.285524
v -3.734049 1.790317 -0.927373
v -3.767952 1.787645 -1.012320
v -0.420878 1.790317 2.472820
v -3.770958 2.041522 -1.019852
v -4.255733 3.212811 -2.234496
v -0.476674 7.209425 -3.908009
v -0.961681 6.325870 6.019031
v -4.719239 6.325870 5.970325
v -0.955046 5.143765 6.035657
v 0.872283 3.212811 3.028209
v -9.548889 11.312446 -1.447495
v -5.490369 11.818133 -5.327981
v -5.511682 11.312446 -5.381383
v 3.985558 11.312446 4.365304
v -0.051651 11.312446 8.299190
v -3.236281 1.365877 0.319825
v -8.998456 9.518771 -1.211095
v -0.255465 8.983510 7.788516
v -4.258257 3.616235 -2.240821
v -1.840860 1.244290 1.083419
v -2.381923 1.244290 0.528146
v -1.654755 1.365877 1.942891
v 0.878542 3.616235 3.030896
v -4.726303 5.143765 5.986772
v -4.612337 4.791228 -3.127997
v -7.341792 6.325870 3.278888
v 3.436583 8.981458 -1.022851
v -0.139565 8.981458 -4.692929
v -4.608363 4.791387 -3.118041
v -0.497213 8.400943 -3.860188
v -0.603866 6.769946 6.915569
v -5.100173 6.769946 6.857284
v 1.756243 4.791228 3.407853
v -0.317713 9.516725 7.632549
v -3.157150 1.244290 0.518098
v -1.850909 1.244290 1.858648
v 1.746394 4.791387 3.403623
v -4.252488 4.449595 -2.226367
v 3.793467 13.003740 4.282804
v -0.129144 13.003740 8.105026
v 3.932728 11.818133 4.342614
v 0.864243 4.449595 3.024755
v -4.612255 5.143606 -3.127793
v 1.756041 5.143606 3.407768
v -8.206522 7.209425 3.624009
v -5.066119 8.400943 6.777995
v -9.496059 11.818133 -1.424805
v -3.908577 1.365877 0.974916
v -3.712424 1.244290 1.059160
v -2.327051 1.365877 2.597980
v -2.406182 1.244290 2.399709
v 2.616715 6.769946 3.777412
v -8.238330 6.769946 3.636705
v -5.142454 1.790317 0.444988
v -0.072964 11.818133 8.245788
v -1.829283 1.790317 3.845180
v -5.086657 7.209425 6.825814
v -5.226496 1.787645 0.408893
v -1.795380 1.787645 3.930127
v -8.158185 8.400943 3.604717
v -5.233947 2.041522 0.405692
v 0.124733 11.312446 -5.308320
v 4.058619 11.312446 -1.271111
v -1.792374 2.041522 3.937660
v 0.102044 11.818133 -5.255489
v 4.005219 11.818133 -1.249799
v -9.111279 8.983510 3.985105
v -5.155448 6.767623 6.985988
v -8.335303 7.216915 3.675407
v -8.368423 6.767623 3.688625
v -5.451664 9.518771 7.675693
v -5.141376 7.216915 6.953222
v -3.920743 1.365877 1.913518
v -3.722472 1.244290 1.834386
v -3.265654 1.365877 2.585815
v -3.181410 1.244290 2.389661
v -8.955310 9.516725 3.922857
v -8.807920 10.698337 -1.129262
v -8.889365 9.516725 -1.164242
v -5.263422 8.981458 -4.759346
v 3.370167 8.981458 4.101005
v -6.435615 3.212811 -0.110402
v 0.042234 13.003740 -5.116229
v 3.864455 13.003740 -1.193619
v -1.307600 3.212811 5.152301
v -5.471084 8.983510 7.720910
v -9.065577 9.518771 3.966865
v -5.167942 1.790317 2.411287
v -3.795582 1.790317 3.819692
v -5.688066 11.312446 8.226127
v -6.441874 3.616235 -0.113089
v 0.184509 13.325197 -5.447499
v 4.199302 13.325197 -1.327260
v -8.872983 10.698337 3.889999
v -1.305076 3.616235 5.158628
v -5.665377 11.818133 8.173297
v -6.427575 4.449595 -0.106948
v -1.310844 4.449595 5.144174
v -5.252891 1.787645 2.445190
v -5.369832 10.698337 7.485156
v -3.831676 1.787645 3.903734
v -5.605566 13.003740 8.034036
v -5.260423 2.041522 2.448196
v -3.834876 2.041522 3.911186
v -7.309726 4.791387 -0.485816
v -0.954969 4.791387 6.035848
v -7.319574 4.791228 -0.490046
v 0.875687 5.235148 4.249994
v 0.866217 6.208921 4.240197
v -0.950996 4.791228 6.045802
v 0.294984 5.235148 4.815835
v -7.319373 5.143606 -0.489959
v -9.621951 11.312446 4.188918
v -0.951077 5.143606 6.045600
v -5.434189 13.003740 -5.187217
v -9.568550 11.818133 4.167606
v 0.285514 6.208921 4.806039
v -6.475063 3.212811 2.932969
v -4.350971 3.212811 5.112853
v -9.427787 13.003740 4.111427
v -5.567829 13.325197 -5.522064
v -8.180047 6.769946 -0.859603
v 4.124737 13.325197 4.425079
v -8.308750 6.767623 -0.914880
v -6.583515 3.208388 2.976253
v -8.275984 7.216915 -0.900805
v -6.589861 3.623704 2.978786
v -6.481389 3.616235 2.935495
v -4.353659 3.616235 5.119111
v -6.466936 4.449595 2.929725
v -4.347518 4.449595 5.104812
v -8.933499 8.981458 -1.183198
v -7.358610 4.791387 3.285600
v -4.726386 4.791387 5.986964
v -0.299911 8.981458 7.677154
v -7.368566 4.791228 3.289573
v -7.480017 4.788228 3.334054
v -4.730615 4.791228 5.996812
v -4.777971 4.788228 6.107074
v -7.479647 5.149212 3.333907
v -7.368363 5.143606 3.289493
v -4.777813 5.149212 6.106708
v -4.730529 5.143606 5.996610
v -9.356799 13.003740 -1.364997
v -9.688068 13.325197 -1.507272
v 0.004497 13.325197 8.439872
v -8.999915 8.981458 3.940660
v -5.423767 8.981458 7.610736
v -5.404812 9.516725 7.566604
v -9.762633 13.325197 4.245067
v -5.747840 13.325197 8.365306
vt 0.125000 0.041667
vt 0.375000 0.041667
vt 0.375000 0.083333
vt 0.125000 0.083333
vt 0.375000 0.708333
vt 0.625000 0.708333
vt 0.625000 0.750000
vt 0.375000 0.750000
vt 0.625000 1.000000
vt 0.375000 1.000000
vt 0.375000 0.666667
vt 0.625000 0.666667
vt 0.375000 0.125000
vt 0.125000 0.125000
vt 0.375000 0.000000
vt 0.625000 0.000000
vt 0.625000 0.041667
vt 0.625000 0.541667
vt 0.375000 0.541667
vt 0.375000 0.541667
vt 0.351397 0.204534
vt 0.500000 0.156250
vt 0.343750 0.156250
vt 0.375000 0.500000
vt 0.625000 0.500000
vt 0.375000 0.500000
vt 0.375000 0.166667
vt 0.125000 0.166667
vt 0.373591 0.248091
vt 0.408159 0.282659
vt 0.451716 0.304853
vt 0.656250 0.156250
vt 0.648603 0.204534
vt 0.500000 0.312500
vt 0.548284 0.304853
vt 0.625000 0.541667
vt 0.626409 0.248091
vt 0.591841 0.282659
vt 0.875000 0.000000
vt 0.875000 0.041667
vt 0.625000 0.500000
vt 0.487500 0.499188
vt 0.500000 0.499188
vt 0.500000 0.312500
vt 0.487500 0.312500
vt 0.625000 0.083333
vt 0.375000 0.208333
vt 0.125000 0.208333
vt 0.375000 0.583333
vt 0.625000 0.583333
vt 0.625000 0.625000
vt 0.375000 0.625000
vt 0.512500 0.499188
vt 0.512500 0.312500
vt 0.625000 0.208333
vt 0.375000 0.208333
vt 0.525000 0.499188
vt 0.525000 0.312500
vt 0.625000 0.250000
vt 0.375000 0.250000
vt 0.375000 0.250000
vt 0.125000 0.208333
vt 0.875000 0.083333
vt 0.125000 0.250000
vt 0.537500 0.499188
vt 0.537500 0.312500
vt 0.600000 0.499188
vt 0.612500 0.499188
vt 0.612500 0.312500
vt 0.600000 0.312500
vt 0.125000 0.250000
vt 0.550000 0.499188
vt 0.550000 0.312500
vt 0.625000 0.208333
vt 0.562500 0.499188
vt 0.562500 0.312500
vt 0.625000 0.250000
vt 0.625000 0.125000
vt 0.587500 0.499188
vt 0.587500 0.312500
vt 0.575000 0.499188
vt 0.575000 0.312500
vt 0.634470 0.420724
vt 0.415936 0.576974
vt 0.875000 0.125000
vt 0.625000 0.166667
vt 0.875000 0.166667
vt 0.875000 0.208333
vt 0.875000 0.208333
vt 0.875000 0.250000
vt 0.875000 0.250000
vt 0.490762 0.658586
vt 0.555915 0.658586
vt 0.554321 0.639605
vt 0.549693 0.636438
vt 0.542486 0.633925
vt 0.533405 0.632312
vt 0.523338 0.631756
vt 0.513272 0.632312
vt 0.504190 0.633925
vt 0.496983 0.636438
vt 0.492356 0.639605
vt 0.125000 0.000000
vt 0.593750 0.612500
vt 0.593750 0.631250
vt 0.562500 0.631250
vt 0.562500 0.612500
vt 0.593750 0.556250
vt 0.593750 0.575000
vt 0.562500 0.575000
vt 0.562500 0.556250
vt 0.593750 0.650000
vt 0.593750 0.668750
vt 0.562500 0.668750
vt 0.562500 0.650000
vt 0.531250 0.631250
vt 0.531250 0.612500
vt 0.593750 0.537500
vt 0.593750 0.556250
vt 0.562500 0.556250
vt 0.562500 0.537500
vt 0.593750 0.687500
vt 0.593750 0.668750
vt 0.625000 0.668750
vt 0.625000 0.687500
vt 0.625000 0.612500
vt 0.625000 0.631250
vt 0.562500 0.518750
vt 0.593750 0.518750
vt 0.531250 0.668750
vt 0.531250 0.650000
vt 0.536828 0.806921
vt 0.552083 0.843750
vt 0.552083 0.843750
vt 0.536828 0.806922
vt 0.531250 0.575000
vt 0.531250 0.556250
vt 0.500000 0.791667
vt 0.500000 0.791667
vt 0.536828 0.880579
vt 0.536828 0.880579
vt 0.536828 0.806922
vt 0.552083 0.843750
vt 0.500000 0.843750
vt 0.500000 0.791667
vt 0.536828 0.880579
vt 0.463172 0.806922
vt 0.500000 0.895833
vt 0.447917 0.843750
vt 0.463172 0.880578
vt 0.463172 0.806922
vt 0.463172 0.806921
vt 0.593750 0.443750
vt 0.593750 0.462500
vt 0.562500 0.462500
vt 0.562500 0.443750
vt 0.500000 0.895833
vt 0.500000 0.895833
vt 0.531250 0.556250
vt 0.531250 0.537500
vt 0.562500 0.500000
vt 0.562500 0.518750
vt 0.531250 0.518750
vt 0.531250 0.500000
vt 0.625000 0.537500
vt 0.625000 0.556250
vt 0.593750 0.518750
vt 0.593750 0.500000
vt 0.625000 0.500000
vt 0.625000 0.518750
vt 0.447917 0.843750
vt 0.447917 0.843750
vt 0.531250 0.518750
vt 0.463172 0.880578
vt 0.463172 0.880578
vt 0.593750 0.425000
vt 0.593750 0.443750
vt 0.562500 0.443750
vt 0.562500 0.425000
vt 0.500000 0.668750
vt 0.500000 0.650000
vt 0.531250 0.462500
vt 0.531250 0.443750
vt 0.593750 0.500000
vt 0.593750 0.481250
vt 0.625000 0.481250
vt 0.625000 0.500000
vt 0.375000 0.668750
vt 0.375000 0.650000
vt 0.406250 0.650000
vt 0.406250 0.668750
vt 0.625000 0.443750
vt 0.625000 0.462500
vt 0.500000 0.631250
vt 0.500000 0.612500
vt 0.375000 0.631250
vt 0.375000 0.612500
vt 0.406250 0.612500
vt 0.406250 0.631250
vt 0.531250 0.443750
vt 0.531250 0.425000
vt 0.625000 0.425000
vt 0.625000 0.443750
vt 0.500000 0.575000
vt 0.500000 0.556250
vt 0.375000 0.575000
vt 0.375000 0.556250
vt 0.406250 0.556250
vt 0.406250 0.575000
vt 0.468750 0.668750
vt 0.468750 0.650000
vt 0.500000 0.556250
vt 0.500000 0.537500
vt 0.437500 0.650000
vt 0.437500 0.668750
vt 0.375000 0.518750
vt 0.375000 0.500000
vt 0.406250 0.500000
vt 0.406250 0.518750
vt 0.531250 0.481250
vt 0.531250 0.500000
vt 0.500000 0.500000
vt 0.500000 0.481250
vt 0.437500 0.612500
vt 0.437500 0.631250
vt 0.375000 0.500000
vt 0.375000 0.481250
vt 0.406250 0.481250
vt 0.406250 0.500000
vt 0.593750 0.631250
vt 0.562500 0.631250
vt 0.593750 0.575000
vt 0.562500 0.575000
vt 0.500000 0.462500
vt 0.500000 0.443750
vt 0.562500 0.612500
vt 0.593750 0.612500
vt 0.593750 0.575000
vt 0.562500 0.575000
vt 0.593750 0.687500
vt 0.562500 0.687500
vt 0.562500 0.687500
vt 0.562500 0.668750
vt 0.375000 0.462500
vt 0.375000 0.443750
vt 0.406250 0.443750
vt 0.406250 0.462500
vt 0.562500 0.556250
vt 0.593750 0.556250
vt 0.593750 0.593750
vt 0.562500 0.593750
vt 0.610485 0.733265
vt 0.656250 0.843750
vt 0.604167 0.843750
vt 0.573657 0.770093
vt 0.375000 0.443750
vt 0.375000 0.425000
vt 0.406250 0.425000
vt 0.406250 0.443750
vt 0.468750 0.556250
vt 0.468750 0.537500
vt 0.531250 0.687500
vt 0.531250 0.687500
vt 0.625000 0.687500
vt 0.531250 0.668750
vt 0.531250 0.631250
vt 0.562500 0.500000
vt 0.406250 0.556250
vt 0.406250 0.537500
vt 0.437500 0.537500
vt 0.437500 0.556250
vt 0.625000 0.631250
vt 0.531250 0.387500
vt 0.531250 0.406250
vt 0.500000 0.406250
vt 0.500000 0.387500
vt 0.375000 0.406250
vt 0.406250 0.406250
vt 0.625000 0.668750
vt 0.500000 0.687500
vt 0.500000 0.739583
vt 0.531250 0.612500
vt 0.552083 0.843750
vt 0.536828 0.806922
vt 0.610485 0.954235
vt 0.573657 0.917407
vt 0.625000 0.612500
vt 0.625000 0.650000
vt 0.531250 0.575000
vt 0.593750 0.462500
vt 0.562500 0.462500
vt 0.531250 0.575000
vt 0.562500 0.481250
vt 0.406250 0.518750
vt 0.437500 0.518750
vt 0.625000 0.575000
vt 0.625000 0.575000
vt 0.500000 0.791667
vt 0.536828 0.880579
vt 0.625000 0.575000
vt 0.531250 0.593750
vt 0.375000 0.387500
vt 0.375000 0.368750
vt 0.406250 0.368750
vt 0.406250 0.387500
vt 0.625000 0.556250
vt 0.625000 0.593750
vt 0.531250 0.556250
vt 0.625000 0.556250
vt 0.468750 0.500000
vt 0.468750 0.481250
vt 0.437500 0.481250
vt 0.437500 0.500000
vt 0.426343 0.770093
vt 0.463172 0.806922
vt 0.500000 0.947917
vt 0.500000 0.895833
vt 0.625000 0.518750
vt 0.468750 0.518750
vt 0.389515 0.733265
vt 0.500000 1.000000
vt 0.500000 0.687500
vt 0.500000 0.687500
vt 0.406250 0.687500
vt 0.375000 0.687500
vt 0.375000 0.687500
vt 0.406250 0.687500
vt 0.500000 0.668750
vt 0.562500 0.406250
vt 0.593750 0.406250
vt 0.375000 0.668750
vt 0.406250 0.668750
vt 0.562500 0.387500
vt 0.593750 0.387500
vt 0.468750 0.462500
vt 0.468750 0.443750
vt 0.468750 0.500000
vt 0.468750 0.518750
vt 0.437500 0.518750
vt 0.437500 0.500000
vt 0.437500 0.443750
vt 0.437500 0.462500
vt 0.395833 0.843750
vt 0.447917 0.843750
vt 0.426343 0.917407
vt 0.463172 0.880578
vt 0.500000 0.425000
vt 0.500000 0.443750
vt 0.468750 0.443750
vt 0.468750 0.425000
vt 0.531250 0.462500
vt 0.625000 0.462500
vt 0.500000 0.631250
vt 0.562500 0.368750
vt 0.593750 0.368750
vt 0.375000 0.631250
vt 0.406250 0.631250
vt 0.343750 0.843750
vt 0.389515 0.954235
vt 0.437500 0.406250
vt 0.437500 0.425000
vt 0.500000 0.612500
vt 0.562500 0.350000
vt 0.593750 0.350000
vt 0.375000 0.612500
vt 0.406250 0.612500
vt 0.437500 0.387500
vt 0.500000 0.593750
vt 0.375000 0.593750
vt 0.406250 0.593750
vt 0.468750 0.687500
vt 0.468750 0.687500
vt 0.437500 0.687500
vt 0.437500 0.687500
vt 0.437500 0.368750
vt 0.468750 0.668750
vt 0.437500 0.668750
vt 0.500000 0.575000
vt 0.625000 0.406250
vt 0.375000 0.575000
vt 0.406250 0.575000
vt 0.500000 0.575000
vt 0.406250 0.575000
vt 0.375000 0.575000
vt 0.625000 0.387500
vt 0.500000 0.556250
vt 0.468750 0.406250
vt 0.375000 0.556250
vt 0.406250 0.556250
vt 0.375000 0.556250
vt 0.531250 0.368750
vt 0.468750 0.387500
vt 0.625000 0.368750
vt 0.468750 0.631250
vt 0.437500 0.631250
vt 0.468750 0.368750
vt 0.531250 0.350000
vt 0.500000 0.518750
vt 0.625000 0.350000
vt 0.375000 0.518750
vt 0.375000 0.537500
vt 0.500000 0.518750
vt 0.468750 0.631250
vt 0.500000 0.500000
vt 0.468750 0.612500
vt 0.468750 0.612500
vt 0.437500 0.612500
vt 0.468750 0.593750
vt 0.437500 0.593750
vt 0.500000 0.462500
vt 0.468750 0.575000
vt 0.437500 0.575000
vt 0.375000 0.462500
vt 0.406250 0.462500
vt 0.468750 0.575000
vt 0.468750 0.575000
vt 0.437500 0.575000
vt 0.437500 0.575000
vt 0.468750 0.556250
vt 0.468750 0.556250
vt 0.437500 0.556250
vt 0.437500 0.556250
vt 0.500000 0.368750
vt 0.500000 0.350000
vt 0.375000 0.350000
vt 0.406250 0.350000
vt 0.468750 0.462500
vt 0.437500 0.462500
vt 0.437500 0.443750
vt 0.468750 0.350000
vt 0.437500 0.350000
vt 0.391782 0.539355
vt 0.385041 0.539355
vt 0.385059 0.554801
vt 0.391779 0.554801
vn -0.952426 0.304770 -0.000000
vn -0.952426 0.304769 -0.000000
vn -0.990997 0.133886 -0.000000
vn -0.990997 0.133886 -0.000000
vn 0.000000 0.179094 0.983832
vn 0.000000 0.179094 0.983832
vn 0.000000 -0.000000 1.000000
vn 0.000000 -0.000000 1.000000
vn 0.000000 1.000000 0.000000
vn 0.000000 1.000000 0.000000
vn 0.000000 1.000000 0.000000
vn 0.000000 1.000000 0.000000
vn 0.000000 0.088414 0.996084
vn 0.000000 0.088414 0.996084
vn -0.984513 0.175313 0.000000
vn -0.984513 0.175313 0.000000
vn 0.000000 0.000000 -1.000000
vn 0.000000 0.000000 -1.000000
vn 0.000000 0.179094 -0.983832
vn 0.000000 0.179094 -0.983832
vn -0.180307 0.983610 -0.000002
vn -0.184013 0.982924 -0.000002
vn -0.184012 0.982924 -0.000002
vn -0.180307 0.983610 -0.000002
vn 0.000000 -0.000000 1.000000
vn 0.000000 -0.000000 1.000000
vn 0.000000 -0.000000 1.000000
vn 0.184013 -0.982924 -0.000002
vn 0.268400 -0.963308 -0.000000
vn 0.268400 -0.963308 -0.000000
vn 0.184012 -0.982924 -0.000002
vn -0.992251 0.124251 0.000000
vn -0.992251 0.124251 0.000000
vn -0.000000 -0.000000 1.000000
vn -0.000000 -0.000000 1.000000
vn 0.000000 -0.000000 1.000000
vn 0.000000 -0.000000 1.000000
vn -0.000000 -0.000000 1.000000
vn 0.000000 -0.000000 1.000000
vn -0.000000 -0.000000 1.000000
vn 0.000000 -0.000000 1.000000
vn 0.000000 -0.000000 1.000000
vn 1.000000 0.000000 0.000000
vn 1.000000 0.000000 0.000000
vn 0.952426 0.304770 -0.000000
vn 0.952426 0.304770 -0.000000
vn 0.999571 0.029278 0.000000
vn 0.995237 0.097489 0.000000
vn 0.995237 0.097489 0.000000
vn 0.999571 0.029278 0.000000
vn 0.000000 0.055673 -0.998449
vn 0.000000 0.055673 -0.998449
vn -1.000000 0.000000 -0.000000
vn -1.000000 0.000000 -0.000000
vn 0.000000 0.077150 0.997020
vn 0.000000 0.077150 0.997020
vn 0.000000 0.161766 0.986829
vn 0.000000 0.161766 0.986829
vn 0.809016 0.587786 0.000000
vn 0.809016 0.587786 0.000000
vn -0.184013 0.982924 0.000002
vn -0.180307 0.983610 0.000002
vn -0.180307 0.983611 0.000002
vn -0.184012 0.982924 0.000002
vn 0.587785 0.809017 0.000000
vn 0.587785 0.809017 0.000000
vn 0.268400 -0.963308 0.000000
vn 0.184013 -0.982924 0.000002
vn 0.184012 -0.982924 0.000002
vn 0.268400 -0.963308 0.000000
vn 0.000000 -0.000000 1.000000
vn 0.000000 -0.000000 1.000000
vn 0.990997 0.133886 -0.000000
vn 0.990997 0.133886 -0.000000
vn -1.000000 0.000001 0.000000
vn -1.000000 0.000001 0.000000
vn -1.000000 0.000001 0.000000
vn -1.000000 0.000001 0.000000
vn 0.309016 0.951057 0.000000
vn 0.309016 0.951057 0.000000
vn -0.995237 0.097488 0.000000
vn -0.999571 0.029278 0.000000
vn -0.999571 0.029278 0.000000
vn -0.995237 0.097488 0.000000
vn 0.000000 1.000000 0.000000
vn 0.000000 1.000000 0.000000
vn -0.309017 0.951057 0.000000
vn -0.309017 0.951057 0.000000
vn 0.000000 -0.000000 1.000000
vn 0.000000 -0.000000 1.000000
vn 0.000000 -0.000000 1.000000
vn 0.000000 -0.000000 1.000000
vn 0.000000 0.106800 -0.994281
vn 0.000000 0.106800 -0.994281
vn -0.809018 0.587785 0.000000
vn -0.809018 0.587785 0.000000
vn -0.587785 0.809017 0.000000
vn -0.587785 0.809017 0.000000
vn -0.000000 -1.000000 -0.000000
vn -0.000000 -1.000000 -0.000000
vn -0.000000 -1.000000 -0.000000
vn -0.000000 -1.000000 -0.000000
vn -0.000000 -1.000000 -0.000000
vn 0.984513 0.175313 0.000000
vn 0.984513 0.175313 0.000000
vn 0.000000 0.077150 -0.997020
vn 0.000000 0.077150 -0.997020
vn 0.000000 0.000000 -1.000000
vn 0.000000 0.000000 -1.000000
vn 0.891189 0.453632 0.000000
vn 0.891189 0.453631 0.000000
vn 1.000000 0.000000 0.000000
vn 1.000000 0.000000 0.000000
vn 0.000000 0.000000 -1.000000
vn 0.000000 0.000000 -1.000000
vn 0.000000 0.000000 -1.000000
vn 0.000000 0.000000 -1.000000
vn 1.000000 0.000000 0.000000
vn 1.000000 0.000000 0.000000
vn 1.000000 0.000000 0.000000
vn 1.000000 0.000000 0.000000
vn 0.000000 -0.000000 1.000000
vn 0.000000 -0.000000 1.000000
vn 0.000000 -0.000000 1.000000
vn 0.000000 -0.000000 1.000000
vn 0.000000 -0.000000 1.000000
vn 0.000000 -0.000000 1.000000
vn 0.000000 -0.000000 1.000000
vn 0.000000 -0.000000 1.000000
vn 0.000000 -0.000000 1.000000
vn 0.000000 -0.000000 1.000000
vn 0.000000 -0.000000 1.000000
vn -1.000000 0.000000 -0.000000
vn -1.000000 0.000000 -0.000000
vn 0.716130 -0.015196 -0.697802
vn 0.716130 -0.015196 -0.697802
vn 0.716130 -0.015196 -0.697802
vn 0.716130 -0.015196 -0.697802
vn 0.716213 0.001023 -0.697881
vn 0.716213 0.001023 -0.697881
vn 0.716213 0.001023 -0.697881
vn 0.716213 0.001023 -0.697881
vn 0.419308 -0.810707 -0.408576
vn 0.716105 -0.017301 -0.697778
vn 0.716105 -0.017301 -0.697778
vn 0.419308 -0.810707 -0.408576
vn 0.012960 -0.015196 -0.999801
vn 0.012960 -0.015196 -0.999801
vn 0.012960 -0.015196 -0.999801
vn 0.012960 -0.015196 -0.999801
vn 0.596971 -0.552502 -0.581693
vn 0.716142 0.013990 -0.697814
vn 0.716142 0.013990 -0.697814
vn 0.596971 -0.552502 -0.581693
vn 0.999481 -0.029500 0.012956
vn 0.999481 -0.029500 0.012956
vn 0.999481 -0.029500 0.012956
vn 0.999481 -0.029500 0.012956
vn 0.999801 -0.015197 0.012960
vn 0.999801 -0.015197 0.012960
vn 0.999801 -0.015197 0.012960
vn 0.999801 -0.015197 0.012960
vn 0.134382 -0.940233 -0.312894
vn 0.316272 -0.940233 -0.126227
vn 0.007588 -0.810708 -0.585402
vn 0.012959 -0.017302 -0.999766
vn 0.012959 -0.017302 -0.999766
vn 0.007588 -0.810708 -0.585402
vn 0.660190 -0.387714 -0.643294
vn 0.660190 -0.387714 -0.643294
vn 0.578809 -0.588973 -0.563996
vn 0.578809 -0.588973 -0.563996
vn 0.012961 0.001024 -0.999915
vn 0.012961 0.001024 -0.999916
vn 0.012961 0.001024 -0.999915
vn 0.012961 0.001024 -0.999915
vn 0.011947 -0.387713 -0.921703
vn 0.010474 -0.588972 -0.808086
vn 0.010474 -0.588972 -0.808086
vn 0.011947 -0.387713 -0.921703
vn 0.808085 -0.588973 0.010475
vn 0.808085 -0.588973 0.010475
vn 0.921702 -0.387714 0.011947
vn 0.921702 -0.387714 0.011947
vn 0.000000 -1.000000 0.000017
vn 0.000000 -1.000000 0.000009
vn 0.000000 -1.000000 0.000007
vn 0.000000 -1.000000 0.000009
vn 0.000000 -1.000000 -0.000000
vn 0.000000 -1.000000 0.000017
vn 0.000000 -1.000000 -0.000009
vn 0.000000 -1.000000 0.000017
vn 0.000000 -1.000000 -0.000009
vn -0.643293 -0.387714 -0.660191
vn -0.563995 -0.588972 -0.578811
vn -0.563995 -0.588972 -0.578811
vn -0.643293 -0.387713 -0.660191
vn 0.713643 0.084631 -0.695379
vn 0.713643 0.084631 -0.695379
vn 0.713643 0.084631 -0.695379
vn 0.713643 0.084631 -0.695379
vn 0.643292 -0.387714 0.660192
vn 0.643292 -0.387714 0.660192
vn 0.563994 -0.588972 0.578811
vn 0.563994 -0.588972 0.578811
vn 0.010803 -0.552502 -0.833441
vn 0.012960 0.013990 -0.999818
vn 0.012960 0.013990 -0.999818
vn 0.010803 -0.552502 -0.833442
vn 0.012927 0.073132 -0.997239
vn 0.012927 0.073132 -0.997238
vn 0.012927 0.073132 -0.997238
vn 0.012927 0.073132 -0.997238
vn 0.999818 0.013991 0.012960
vn 0.833441 -0.552502 0.010803
vn 0.833441 -0.552503 0.010803
vn 0.999818 0.013991 0.012960
vn 0.997239 0.073133 0.012927
vn 0.997239 0.073133 0.012927
vn 0.997238 0.073133 0.012927
vn 0.997239 0.073133 0.012927
vn -0.921702 -0.387714 -0.011947
vn -0.808085 -0.588972 -0.010475
vn -0.808085 -0.588972 -0.010475
vn -0.921702 -0.387714 -0.011947
vn -0.126227 -0.940233 -0.316272
vn -0.011947 -0.387714 0.921702
vn -0.011947 -0.387714 0.921702
vn -0.010474 -0.588973 0.808085
vn -0.010474 -0.588973 0.808085
vn -0.660190 -0.387713 0.643294
vn -0.578809 -0.588972 0.563997
vn -0.578809 -0.588972 0.563997
vn -0.660190 -0.387713 0.643294
vn 0.657207 -0.397469 -0.640388
vn 0.714498 0.069141 -0.696213
vn 0.714498 0.069141 -0.696213
vn 0.657207 -0.397469 -0.640388
vn -0.408576 -0.810707 -0.419308
vn -0.697778 -0.017302 -0.716105
vn -0.697778 -0.017302 -0.716105
vn -0.408576 -0.810707 -0.419308
vn 0.012915 0.084632 -0.996329
vn 0.012915 0.084632 -0.996329
vn 0.012915 0.084632 -0.996329
vn 0.012915 0.084632 -0.996329
vn 0.999103 0.040321 0.012951
vn 0.883409 -0.468462 0.011451
vn 0.883409 -0.468462 0.011451
vn 0.999103 0.040321 0.012951
vn 0.697778 -0.017302 0.716105
vn 0.408577 -0.810707 0.419308
vn 0.408576 -0.810707 0.419308
vn 0.697778 -0.017302 0.716105
vn 0.996329 0.084632 0.012915
vn 0.996329 0.084632 0.012915
vn 0.996329 0.084632 0.012915
vn 0.996329 0.084632 0.012915
vn -0.697803 -0.015196 -0.716129
vn -0.697803 -0.015196 -0.716129
vn -0.697803 -0.015196 -0.716129
vn -0.697803 -0.015196 -0.716129
vn 0.697800 -0.015196 0.716131
vn 0.697800 -0.015196 0.716131
vn 0.697800 -0.015196 0.716131
vn 0.697800 -0.015196 0.716131
vn 0.011894 -0.397470 -0.917538
vn 0.012931 0.069140 -0.997523
vn 0.012931 0.069140 -0.997523
vn 0.011894 -0.397470 -0.917538
vn 0.997523 0.069141 0.012931
vn 0.917538 -0.397469 0.011894
vn 0.917538 -0.397470 0.011894
vn 0.997523 0.069141 0.012931
vn -0.697881 0.001026 -0.716213
vn -0.697881 0.001026 -0.716213
vn -0.697882 0.001026 -0.716213
vn -0.697881 0.001026 -0.716213
vn 0.697882 0.001021 0.716212
vn 0.697882 0.001021 0.716212
vn 0.697882 0.001021 0.716212
vn 0.697882 0.001021 0.716212
vn -0.585403 -0.810707 -0.007588
vn -0.999766 -0.017302 -0.012959
vn -0.999766 -0.017302 -0.012959
vn -0.585403 -0.810707 -0.007588
vn -0.581693 -0.552502 -0.596971
vn -0.697814 0.013991 -0.716142
vn -0.697814 0.013991 -0.716142
vn -0.581693 -0.552502 -0.596971
vn -0.012959 -0.017302 0.999766
vn -0.007588 -0.810707 0.585403
vn -0.007588 -0.810707 0.585403
vn -0.012959 -0.017302 0.999766
vn -0.419308 -0.810707 0.408577
vn -0.716105 -0.017302 0.697778
vn -0.716105 -0.017302 0.697778
vn -0.419308 -0.810707 0.408577
vn 0.696014 0.073132 0.714294
vn 0.696014 0.073132 0.714294
vn 0.696014 0.073132 0.714294
vn 0.696014 0.073132 0.714294
vn -0.616568 -0.468462 -0.632762
vn -0.697315 0.040321 -0.715630
vn -0.697315 0.040321 -0.715630
vn -0.616568 -0.468462 -0.632762
vn -0.012959 -0.015196 0.999801
vn -0.012959 -0.015196 0.999801
vn -0.012959 -0.015196 0.999801
vn -0.012959 -0.015196 0.999801
vn 0.697315 0.040321 0.715630
vn 0.616568 -0.468462 0.632762
vn 0.616568 -0.468462 0.632762
vn 0.697315 0.040321 0.715630
vn -0.029334 -0.999161 0.028581
vn -0.029334 -0.999161 0.028581
vn -0.029334 -0.999161 0.028581
vn -0.029334 -0.999161 0.028581
vn -0.019375 -0.999634 0.018877
vn -0.019375 -0.999634 0.018877
vn -0.019375 -0.999634 0.018877
vn -0.019375 -0.999634 0.018877
vn -0.695379 0.084631 -0.713643
vn -0.695379 0.084631 -0.713643
vn -0.695379 0.084631 -0.713643
vn -0.695379 0.084631 -0.713643
vn -0.049460 0.997613 0.048188
vn -0.049460 0.997613 0.048188
vn -0.049460 0.997613 0.048188
vn -0.049460 0.997613 0.048188
vn 0.305767 -0.944253 -0.122034
vn 0.129919 -0.944253 -0.302501
vn -0.005828 -0.999891 0.013574
vn -0.013715 -0.999891 0.005471
vn 0.242114 -0.965424 -0.096630
vn 0.102873 -0.965424 -0.239529
vn -0.011520 -0.999574 0.026818
vn -0.027113 -0.999574 0.010817
vn 0.715901 -0.029500 -0.697578
vn 0.715901 -0.029500 -0.697578
vn 0.715901 -0.029500 -0.697578
vn 0.715901 -0.029500 -0.697578
vn 0.695379 0.084632 0.713643
vn 0.695379 0.084632 0.713643
vn 0.695379 0.084632 0.713643
vn 0.695379 0.084632 0.713643
vn 0.011520 0.999574 -0.026823
vn 0.027113 0.999574 -0.010820
vn 0.027113 0.999574 -0.010820
vn 0.011520 0.999574 -0.026823
vn -0.036222 0.998720 0.035298
vn -0.036222 0.998720 0.035298
vn -0.036222 0.998720 0.035298
vn -0.036222 0.998720 0.035298
vn 0.267717 -0.927511 -0.260865
vn 0.267717 -0.927511 -0.260865
vn 0.005834 0.999891 -0.013603
vn 0.013731 0.999891 -0.005496
vn 0.013731 0.999891 -0.005496
vn 0.005835 0.999890 -0.013603
vn 0.525816 -0.678976 -0.512358
vn 0.525816 -0.678976 -0.512358
vn 0.716106 0.017251 -0.697778
vn 0.716106 0.017251 -0.697778
vn -0.006544 -0.999863 0.015235
vn -0.015402 -0.999863 0.006147
vn 0.291282 -0.949547 -0.116253
vn 0.123764 -0.949547 -0.288171
vn 0.696213 0.069140 0.714498
vn 0.640388 -0.397469 0.657207
vn 0.640388 -0.397469 0.657207
vn 0.696213 0.069140 0.714498
vn 0.714294 0.073132 -0.696014
vn 0.714294 0.073132 -0.696014
vn 0.714294 0.073132 -0.696014
vn 0.714294 0.073131 -0.696014
vn -0.833442 -0.552502 -0.010803
vn -0.999818 0.013990 -0.012960
vn -0.999818 0.013990 -0.012960
vn -0.833442 -0.552502 -0.010803
vn -0.096630 -0.965424 -0.242114
vn 0.010821 -0.999574 0.027114
vn 0.239528 -0.965424 0.102873
vn -0.026824 -0.999574 -0.011524
vn 0.012955 -0.029500 -0.999481
vn 0.012955 -0.029500 -0.999481
vn 0.012955 -0.029500 -0.999481
vn 0.012955 -0.029500 -0.999481
vn -0.000531 -0.999161 0.040942
vn -0.000531 -0.999161 0.040942
vn -0.000531 -0.999161 0.040942
vn -0.000531 -0.999161 0.040942
vn -0.021285 0.998544 0.049559
vn -0.050094 0.998544 0.019993
vn -0.050094 0.998544 0.019993
vn -0.021285 0.998544 0.049559
vn -0.012960 0.013989 0.999818
vn -0.010803 -0.552502 0.833441
vn -0.010803 -0.552502 0.833441
vn -0.012960 0.013989 0.999818
vn -0.040953 -0.999161 -0.000531
vn -0.040953 -0.999161 -0.000531
vn -0.040953 -0.999161 -0.000531
vn -0.040953 -0.999161 -0.000531
vn -0.693392 0.113263 -0.711603
vn -0.614649 -0.473611 -0.630793
vn -0.614649 -0.473611 -0.630793
vn -0.693392 0.113263 -0.711603
vn 0.614649 -0.473610 0.630793
vn 0.614649 -0.473610 0.630793
vn -0.010821 0.999574 -0.027115
vn -0.010821 0.999574 -0.027115
vn 0.026824 0.999574 0.011519
vn 0.026823 0.999574 0.011519
vn 0.481789 -0.739925 -0.469458
vn 0.481789 -0.739925 -0.469458
vn 0.481789 -0.739925 -0.469458
vn 0.481789 -0.739925 -0.469458
vn 0.008718 -0.739924 -0.672634
vn 0.008718 -0.739924 -0.672634
vn 0.008718 -0.739924 -0.672634
vn 0.008718 -0.739924 -0.672634
vn 0.672633 -0.739925 0.008721
vn 0.672633 -0.739925 0.008721
vn 0.672633 -0.739925 0.008721
vn 0.672633 -0.739925 0.008721
vn -0.116253 -0.949547 -0.291282
vn -0.000895 0.997612 0.069062
vn -0.000895 0.997612 0.069062
vn -0.000895 0.997612 0.069062
vn -0.000895 0.997612 0.069063
vn 0.459650 -0.868947 -0.183449
vn 0.195302 -0.868947 -0.454740
vn 0.288171 -0.949547 0.123764
vn 0.004845 -0.927511 -0.373763
vn 0.004845 -0.927511 -0.373763
vn -0.069051 0.997613 -0.000895
vn -0.069051 0.997613 -0.000895
vn -0.069051 0.997613 -0.000895
vn -0.069051 0.997613 -0.000895
vn -0.469459 -0.739927 -0.481785
vn -0.469459 -0.739927 -0.481785
vn -0.469459 -0.739927 -0.481785
vn -0.469459 -0.739927 -0.481785
vn 0.469457 -0.739926 0.481787
vn 0.469457 -0.739926 0.481787
vn 0.469457 -0.739926 0.481787
vn 0.469457 -0.739926 0.481787
vn 0.373764 -0.927511 0.004845
vn 0.373764 -0.927511 0.004845
vn 0.585403 -0.810707 0.007588
vn 0.585403 -0.810707 0.007588
vn 0.999766 -0.017301 0.012959
vn 0.999766 -0.017301 0.012959
vn -0.000351 -0.999634 0.027040
vn -0.000351 -0.999634 0.027040
vn -0.000351 -0.999634 0.027040
vn -0.000351 -0.999634 0.027040
vn -0.672634 -0.739924 -0.008721
vn -0.672634 -0.739924 -0.008721
vn -0.672634 -0.739924 -0.008721
vn -0.672634 -0.739924 -0.008721
vn -0.008718 -0.739921 0.672637
vn -0.008718 -0.739921 0.672637
vn -0.008718 -0.739921 0.672637
vn -0.008718 -0.739921 0.672637
vn 0.015894 -0.999854 -0.006344
vn 0.006753 -0.999854 -0.015725
vn 0.006753 -0.999854 -0.015725
vn 0.015894 -0.999854 -0.006344
vn -0.122034 -0.944253 -0.305767
vn 0.005474 -0.999891 0.013703
vn 0.632762 -0.468461 -0.616568
vn 0.632762 -0.468462 -0.616568
vn 0.715630 0.040322 -0.697315
vn 0.715630 0.040322 -0.697315
vn 0.126227 -0.940233 0.316272
vn -0.134382 -0.940233 0.312895
vn -0.027045 -0.999634 -0.000351
vn -0.027045 -0.999634 -0.000351
vn -0.027045 -0.999634 -0.000351
vn -0.027045 -0.999634 -0.000351
vn -0.481789 -0.739926 0.469457
vn -0.481789 -0.739926 0.469457
vn -0.481788 -0.739926 0.469457
vn -0.481789 -0.739926 0.469457
vn -0.183450 -0.868946 -0.459651
vn 0.454741 -0.868946 0.195304
vn 0.302501 -0.944253 0.129919
vn -0.013569 -0.999891 -0.005831
vn 0.009515 -0.678975 -0.734099
vn 0.009515 -0.678975 -0.734099
vn 0.012959 0.017250 -0.999767
vn 0.012959 0.017250 -0.999767
vn 0.693392 0.113263 0.711604
vn 0.689217 -0.157093 0.707320
vn 0.689217 -0.157094 0.707320
vn 0.693392 0.113263 0.711604
vn 0.999916 0.001023 0.012961
vn 0.999916 0.001023 0.012961
vn 0.999915 0.001023 0.012961
vn 0.999915 0.001023 0.012961
vn 0.734100 -0.678975 0.009515
vn 0.734100 -0.678975 0.009515
vn 0.999767 0.017250 0.012959
vn 0.999767 0.017250 0.012959
vn -0.000655 0.998720 0.050572
vn -0.000655 0.998720 0.050572
vn -0.000655 0.998720 0.050572
vn -0.000655 0.998720 0.050572
vn -0.005481 0.999891 -0.013738
vn -0.005480 0.999891 -0.013738
vn 0.408075 -0.821806 -0.397631
vn 0.408075 -0.821805 -0.397631
vn -0.050570 0.998720 -0.000655
vn -0.050570 0.998720 -0.000655
vn -0.050570 0.998720 -0.000655
vn -0.050570 0.998720 -0.000655
vn 0.013585 0.999891 0.005837
vn 0.013584 0.999891 0.005838
vn -0.596971 -0.552502 0.581693
vn -0.716142 0.013989 0.697814
vn -0.716142 0.013989 0.697814
vn -0.596971 -0.552502 0.581693
vn -0.006802 0.999852 0.015840
vn -0.016009 0.999852 0.006389
vn -0.016009 0.999852 0.006389
vn -0.006802 0.999852 0.015840
vn -0.883409 -0.468462 -0.011451
vn -0.999103 0.040322 -0.012951
vn -0.999103 0.040322 -0.012951
vn -0.883409 -0.468462 -0.011451
vn -0.012951 0.040321 0.999103
vn -0.011451 -0.468462 0.883409
vn -0.011451 -0.468462 0.883409
vn -0.012951 0.040321 0.999103
vn 0.006147 -0.999863 0.015399
vn -0.288171 -0.949547 -0.123764
vn -0.454741 -0.868946 -0.195304
vn 0.116253 -0.949547 0.291282
vn 0.183451 -0.868945 0.459652
vn 0.312894 -0.940233 0.134382
vn -0.015237 -0.999863 -0.006545
vn -0.316272 -0.940233 0.126227
vn -0.239528 -0.965424 -0.102873
vn 0.096630 -0.965424 0.242114
vn 0.019993 0.998544 0.050093
vn 0.019993 0.998544 0.050093
vn 0.026824 -0.999574 0.011524
vn -0.049559 0.998544 -0.021285
vn -0.049559 0.998544 -0.021285
vn -0.010821 -0.999574 -0.027119
vn -0.697577 -0.029499 -0.715902
vn -0.697577 -0.029499 -0.715902
vn -0.697577 -0.029499 -0.715902
vn -0.697577 -0.029499 -0.715902
vn 0.630793 -0.473610 -0.614649
vn 0.630793 -0.473610 -0.614649
vn 0.697577 -0.029498 0.715902
vn 0.697577 -0.029498 0.715902
vn 0.697577 -0.029498 0.715902
vn 0.697577 -0.029498 0.715902
vn 0.711603 0.113263 -0.693392
vn 0.711603 0.113263 -0.693392
vn -0.026823 0.999574 -0.011521
vn -0.026823 0.999574 -0.011521
vn -0.996329 0.084630 -0.012915
vn -0.996329 0.084630 -0.012915
vn -0.996329 0.084630 -0.012915
vn -0.996329 0.084630 -0.012915
vn 0.010821 0.999574 0.027114
vn 0.010821 0.999574 0.027114
vn -0.714295 0.073130 0.696014
vn -0.714295 0.073130 0.696014
vn -0.714295 0.073130 0.696014
vn -0.714295 0.073130 0.696014
vn -0.012915 0.084632 0.996329
vn -0.012915 0.084632 0.996329
vn -0.012915 0.084632 0.996329
vn -0.012915 0.084632 0.996329
vn -0.291282 -0.949547 0.116253
vn -0.459651 -0.868946 0.183450
vn -0.123764 -0.949547 0.288171
vn -0.195303 -0.868946 0.454741
vn 0.011451 -0.468462 -0.883410
vn 0.011451 -0.468462 -0.883410
vn 0.012951 0.040322 -0.999103
vn 0.012951 0.040322 -0.999103
vn -0.917539 -0.397469 -0.011894
vn -0.997523 0.069141 -0.012931
vn -0.997523 0.069141 -0.012931
vn -0.917539 -0.397469 -0.011894
vn -0.632762 -0.468462 0.616568
vn -0.715630 0.040321 0.697315
vn -0.715630 0.040321 0.697315
vn -0.632762 -0.468462 0.616568
vn -0.006344 -0.999854 -0.015895
vn -0.006344 -0.999854 -0.015895
vn 0.015725 -0.999854 0.006753
vn 0.015725 -0.999854 0.006753
vn 0.007385 -0.821805 -0.569720
vn 0.007385 -0.821805 -0.569720
vn -0.260865 -0.927511 -0.267717
vn -0.260865 -0.927511 -0.267717
vn 0.707319 -0.157094 -0.689218
vn 0.707319 -0.157094 -0.689218
vn 0.569720 -0.821806 0.007385
vn 0.569720 -0.821806 0.007385
vn 0.260865 -0.927511 0.267717
vn 0.260865 -0.927511 0.267717
vn 0.028583 -0.999161 0.029332
vn 0.028583 -0.999161 0.029332
vn 0.028583 -0.999161 0.029332
vn 0.028583 -0.999161 0.029332
vn 0.006389 0.999851 0.016011
vn 0.006389 0.999851 0.016011
vn -0.028583 -0.999161 -0.029340
vn -0.028583 -0.999161 -0.029340
vn -0.028583 -0.999161 -0.029340
vn -0.028583 -0.999161 -0.029340
vn -0.242114 -0.965424 0.096630
vn -0.102873 -0.965424 0.239528
vn -0.015839 0.999851 -0.006802
vn -0.015839 0.999852 -0.006802
vn -0.011894 -0.397469 0.917539
vn -0.011416 -0.473610 0.880661
vn -0.011416 -0.473610 0.880661
vn -0.011894 -0.397469 0.917539
vn 0.048194 0.997613 0.049457
vn 0.048194 0.997613 0.049457
vn 0.048194 0.997613 0.049457
vn 0.048194 0.997613 0.049457
vn 0.497361 -0.719557 -0.484633
vn 0.497361 -0.719557 -0.484633
vn -0.048194 0.997612 -0.049463
vn -0.048194 0.997612 -0.049463
vn -0.048194 0.997612 -0.049463
vn -0.048194 0.997612 -0.049463
vn -0.012878 0.113263 0.993482
vn -0.012878 0.113263 0.993482
vn -0.512358 -0.678975 -0.525815
vn -0.512358 -0.678975 -0.525815
vn -0.697778 0.017250 -0.716106
vn -0.697778 0.017250 -0.716106
vn -0.713643 0.084632 0.695379
vn -0.713643 0.084632 0.695379
vn -0.713643 0.084632 0.695379
vn -0.713643 0.084632 0.695379
vn 0.512358 -0.678976 0.525815
vn 0.512358 -0.678975 0.525815
vn 0.697779 0.017250 0.716106
vn 0.697779 0.017250 0.716106
vn 0.027113 -0.999574 -0.010824
vn 0.011520 -0.999574 -0.026829
vn -0.012801 -0.157094 0.987501
vn -0.012801 -0.157093 0.987501
vn -0.999481 -0.029498 -0.012956
vn -0.999481 -0.029498 -0.012956
vn -0.999481 -0.029498 -0.012956
vn -0.999481 -0.029498 -0.012956
vn -0.012955 -0.029500 0.999481
vn -0.012955 -0.029500 0.999481
vn -0.012955 -0.029500 0.999481
vn -0.012955 -0.029500 0.999481
vn -0.027113 0.999574 0.010822
vn -0.027113 0.999574 0.010822
vn 0.011416 -0.473610 -0.880661
vn 0.011416 -0.473610 -0.880661
vn -0.011520 0.999574 0.026826
vn -0.011520 0.999574 0.026826
vn -0.302501 -0.944253 -0.129919
vn 0.880660 -0.473611 0.011416
vn 0.880660 -0.473611 0.011416
vn 0.122034 -0.944253 0.305768
vn 0.012878 0.113263 -0.993482
vn 0.012878 0.113263 -0.993482
vn 0.018879 -0.999634 0.019377
vn 0.018879 -0.999634 0.019377
vn 0.018879 -0.999634 0.019377
vn 0.018879 -0.999634 0.019377
vn 0.013569 -0.999891 0.005807
vn -0.018873 -0.999634 -0.019368
vn -0.018873 -0.999634 -0.019368
vn -0.018873 -0.999634 -0.019368
vn -0.018873 -0.999634 -0.019368
vn -0.005474 -0.999891 -0.013705
vn 0.993482 0.113263 0.012878
vn 0.993482 0.113263 0.012878
vn -0.013584 0.999891 -0.005838
vn -0.013585 0.999891 -0.005837
vn 0.035295 0.998720 0.036221
vn 0.035295 0.998720 0.036221
vn 0.035295 0.998720 0.036221
vn 0.035295 0.998720 0.036221
vn -0.630793 -0.473611 0.614649
vn -0.657207 -0.397469 0.640388
vn -0.657207 -0.397469 0.640388
vn -0.630793 -0.473611 0.614649
vn 0.005480 0.999891 0.013725
vn 0.005480 0.999891 0.013725
vn -0.035295 0.998720 -0.036221
vn -0.035295 0.998720 -0.036221
vn -0.035295 0.998720 -0.036221
vn -0.035295 0.998720 -0.036221
vn -0.715900 -0.029500 0.697579
vn -0.715900 -0.029500 0.697579
vn -0.715900 -0.029500 0.697579
vn -0.715900 -0.029500 0.697579
vn 0.012801 -0.157094 -0.987501
vn 0.012801 -0.157094 -0.987501
vn -0.711604 0.113262 0.693392
vn -0.711604 0.113263 0.693392
vn 0.987501 -0.157093 0.012800
vn 0.987501 -0.157093 0.012800
vn -0.373764 -0.927511 -0.004845
vn -0.373764 -0.927511 -0.004845
vn -0.004845 -0.927511 0.373764
vn -0.004845 -0.927511 0.373764
vn -0.707320 -0.157093 0.689217
vn -0.707320 -0.157093 0.689218
vn 0.009001 -0.719558 -0.694374
vn 0.009001 -0.719558 -0.694374
vn -0.312893 -0.940234 -0.134382
vn 0.694375 -0.719557 0.009001
vn 0.694375 -0.719557 0.009001
vn 0.515034 -0.674806 0.528561
vn 0.515034 -0.674806 0.528562
vn 0.015237 -0.999863 0.006543
vn -0.006147 -0.999863 -0.015399
vn 0.040953 -0.999161 0.000531
vn 0.040953 -0.999161 0.000531
vn 0.040953 -0.999161 0.000531
vn 0.040953 -0.999161 0.000531
vn -0.696014 0.073134 -0.714294
vn -0.696014 0.073134 -0.714294
vn -0.696014 0.073134 -0.714294
vn -0.696014 0.073134 -0.714294
vn 0.000531 -0.999161 -0.040960
vn 0.000531 -0.999161 -0.040960
vn 0.000531 -0.999161 -0.040960
vn 0.000531 -0.999161 -0.040960
vn 0.049559 0.998544 0.021284
vn 0.049559 0.998544 0.021284
vn -0.999801 -0.015198 -0.012959
vn -0.999801 -0.015198 -0.012959
vn -0.999801 -0.015198 -0.012959
vn -0.999801 -0.015198 -0.012959
vn -0.267717 -0.927511 0.260865
vn -0.267717 -0.927511 0.260865
vn 0.069051 0.997613 0.000895
vn 0.069051 0.997613 0.000895
vn 0.069051 0.997613 0.000895
vn 0.069051 0.997613 0.000895
vn 0.716212 0.000000 -0.697883
vn 0.716212 0.000000 -0.697883
vn -0.019993 0.998544 -0.050093
vn -0.019993 0.998544 -0.050093
vn 0.000895 0.997613 -0.069052
vn 0.000895 0.997613 -0.069052
vn 0.000895 0.997613 -0.069052
vn 0.000895 0.997613 -0.069052
vn -0.734100 -0.678975 -0.009515
vn -0.734099 -0.678976 -0.009515
vn -0.999767 0.017249 -0.012959
vn -0.999767 0.017249 -0.012959
vn -0.009515 -0.678976 0.734099
vn -0.009515 -0.678976 0.734099
vn -0.012959 0.017250 0.999767
vn -0.012959 0.017250 0.999767
vn 0.012960 0.000000 -0.999916
vn 0.012960 0.000000 -0.999916
vn 0.999916 -0.000000 0.012961
vn 0.999916 -0.000000 0.012961
vn 0.029334 -0.999161 -0.028583
vn 0.029334 -0.999161 -0.028583
vn 0.029334 -0.999161 -0.028583
vn 0.029334 -0.999161 -0.028583
vn -0.397631 -0.821806 -0.408075
vn -0.397631 -0.821806 -0.408075
vn -0.305768 -0.944253 0.122034
vn -0.716130 -0.015199 0.697802
vn -0.716130 -0.015199 0.697802
vn -0.716130 -0.015199 0.697802
vn -0.716130 -0.015199 0.697802
vn -0.129919 -0.944253 0.302502
vn 0.397631 -0.821806 0.408075
vn 0.397631 -0.821806 0.408075
vn -0.015725 -0.999854 -0.006754
vn -0.015725 -0.999854 -0.006754
vn 0.049459 0.997613 -0.048192
vn 0.049459 0.997613 -0.048192
vn 0.049459 0.997613 -0.048192
vn 0.049459 0.997613 -0.048192
vn 0.006344 -0.999854 0.015895
vn 0.006344 -0.999854 0.015895
vn -0.525815 -0.678976 0.512358
vn -0.525815 -0.678976 0.512358
vn -0.716106 0.017250 0.697778
vn -0.716106 0.017250 0.697778
vn 0.013716 -0.999891 -0.005476
vn 0.027050 -0.999634 0.000351
vn 0.027050 -0.999634 0.000351
vn 0.027050 -0.999634 0.000351
vn 0.027050 -0.999634 0.000351
vn -0.697882 -0.000000 -0.716213
vn -0.697882 -0.000000 -0.716213
vn 0.697882 -0.000000 0.716213
vn 0.697882 -0.000000 0.716213
vn 0.015838 0.999851 0.006802
vn 0.015838 0.999852 0.006802
vn 0.005828 -0.999891 -0.013557
vn 0.000351 -0.999634 -0.027038
vn 0.000351 -0.999634 -0.027038
vn 0.000351 -0.999634 -0.027038
vn 0.000351 -0.999634 -0.027038
vn -0.999916 0.001020 -0.012961
vn -0.999916 0.001020 -0.012961
vn -0.999916 0.001020 -0.012961
vn -0.999916 0.001020 -0.012961
vn -0.006390 0.999852 -0.016010
vn -0.006390 0.999851 -0.016010
vn -0.013731 0.999891 0.005482
vn -0.013731 0.999891 0.005483
vn -0.012961 0.001020 0.999916
vn -0.012961 0.001020 0.999916
vn -0.012961 0.001020 0.999915
vn -0.012961 0.001020 0.999915
vn 0.050570 0.998720 0.000655
vn 0.050570 0.998720 0.000655
vn 0.050570 0.998720 0.000655
vn 0.050570 0.998720 0.000655
vn -0.005834 0.999891 0.013577
vn -0.005835 0.999891 0.013577
vn 0.000655 0.998720 -0.050570
vn 0.000655 0.998720 -0.050570
vn 0.000655 0.998720 -0.050570
vn 0.000655 0.998720 -0.050570
vn -0.640388 -0.397470 -0.657207
vn -0.640388 -0.397470 -0.657207
vn -0.696213 0.069141 -0.714498
vn -0.696213 0.069141 -0.714498
vn -0.999916 0.000000 -0.012961
vn -0.999916 0.000000 -0.012961
vn -0.012960 -0.000000 0.999916
vn -0.012960 -0.000000 0.999916
vn 0.019375 -0.999634 -0.018879
vn 0.019375 -0.999634 -0.018879
vn 0.019375 -0.999634 -0.018879
vn 0.019375 -0.999634 -0.018879
vn -0.716213 -0.000000 0.697881
vn -0.716213 -0.000000 0.697881
vn -0.716213 0.001020 0.697881
vn -0.716213 0.001020 0.697881
vn -0.716213 0.001020 0.697881
vn -0.716213 0.001020 0.697881
vn 0.036222 0.998720 -0.035296
vn 0.036222 0.998720 -0.035296
vn 0.036222 0.998720 -0.035296
vn 0.036222 0.998720 -0.035296
vn 0.015402 -0.999862 -0.006146
vn -0.689217 -0.157094 -0.707320
vn -0.689217 -0.157094 -0.707319
vn 0.006544 -0.999863 -0.015233
vn -0.997239 0.073132 -0.012927
vn -0.997239 0.073132 -0.012927
vn -0.997239 0.073132 -0.012927
vn -0.997239 0.073132 -0.012927
vn 0.050094 0.998544 -0.019993
vn 0.050094 0.998544 -0.019993
vn -0.012927 0.073131 0.997239
vn -0.012927 0.073131 0.997239
vn -0.012927 0.073131 0.997239
vn -0.012927 0.073131 0.997239
vn 0.021285 0.998544 -0.049558
vn 0.021285 0.998544 -0.049558
vn -0.484633 -0.719557 -0.497361
vn -0.484633 -0.719557 -0.497361
vn 0.484633 -0.719557 0.497361
vn 0.484633 -0.719557 0.497361
vn -0.569720 -0.821806 -0.007385
vn -0.569720 -0.821806 -0.007385
vn -0.007385 -0.821806 0.569720
vn -0.007385 -0.821806 0.569720
vn -0.015895 -0.999854 0.006343
vn -0.015895 -0.999854 0.006343
vn -0.006754 -0.999854 0.015725
vn -0.006753 -0.999854 0.015725
vn 0.016009 0.999852 -0.006389
vn 0.016009 0.999852 -0.006389
vn 0.006802 0.999852 -0.015839
vn 0.006802 0.999852 -0.015839
vn -0.012931 0.069141 0.997523
vn -0.012931 0.069141 0.997523
vn -0.408075 -0.821806 0.397631
vn -0.408075 -0.821806 0.397631
vn -0.880660 -0.473611 -0.011416
vn -0.880660 -0.473611 -0.011416
vn -0.993482 0.113263 -0.012878
vn -0.993482 0.113263 -0.012878
vn -0.714498 0.069141 0.696213
vn -0.714498 0.069141 0.696213
vn -0.987501 -0.157094 -0.012800
vn -0.987501 -0.157094 -0.012800
vn -0.694375 -0.719557 -0.009001
vn -0.694375 -0.719557 -0.009001
vn -0.009001 -0.719557 0.694375
vn -0.009001 -0.719557 0.694375
vn -0.497362 -0.719557 0.484633
vn -0.497362 -0.719557 0.484633
vn 0.697814 0.013990 0.716142
vn 0.697814 0.013990 0.716142
vn 0.697814 0.013990 0.716142
vn 0.697814 0.013990 0.716142
vn 0.697814 0.013990 0.716142
vn 0.697814 0.013990 0.716142
vn 0.000000 1.000000 0.000000
vn 0.000000 1.000000 0.000000
vn 0.000000 1.000000 0.000000
vn 0.000000 1.000000 0.000000
vn 0.000000 1.000000 0.000000
vn 0.000000 1.000000 0.000000
vn 0.000000 1.000000 0.000000
vn 0.000000 1.000000 0.000000
s 1
g polySurface2
usemtl initialShadingGroup
f 1/1/1 2/2/2 3/3/3 4/4/4
s 2
f 1/5/5 5/6/6 6/7/7 7/8/8
s off
f 7/8/9 6/7/10 8/9/11 9/10/12
s 2
f 4/11/13 10/12/14 5/6/6 1/5/5
s 1
f 4/4/4 3/3/3 11/13/15 12/14/16
s 3
f 9/15/17 8/16/18 13/17/19 2/2/20
s 4
f 15/19/21 16/20/22 14/18/23 32/36/24
s 5
f 17/21/25 18/22/26 19/23/27
s 6
f 22/26/28 20/24/29 21/25/30 35/41/31
s 1
f 12/14/16 11/13/15 23/27/32 24/28/33
s 5
f 25/29/34 18/22/26 17/21/25
f 26/30/35 18/22/26 25/29/34
f 27/31/36 18/22/26 26/30/35
f 28/32/37 18/22/26 29/33/38
f 30/34/39 18/22/26 27/31/36
f 31/35/40 18/22/26 30/34/39
f 29/33/38 18/22/26 33/37/41
f 34/38/42 18/22/26 31/35/40
f 33/37/41 18/22/26 34/38/42
s 8
f 8/16/43 6/39/44 5/40/45 13/17/46
s 9
f 36/42/47 37/43/48 17/44/49 19/45/50
s 3
f 2/2/20 13/17/19 38/46/51 3/3/52
s 1
f 24/28/33 23/27/32 39/47/53 15/48/54
s 10
f 24/49/55 40/50/56 41/51/57 12/52/58
s 9
f 37/43/48 42/53/59 25/54/60 17/44/49
s 4
f 44/56/61 39/47/62 43/55/63 53/74/64
s 9
f 42/53/59 45/57/65 26/58/66 25/54/60
s 6
f 47/60/67 48/61/68 46/59/69 55/77/70
s 4
f 15/48/21 39/47/62 44/56/61 16/62/22
s 10
f 15/19/71 32/36/72 40/50/56 24/49/55
s 8
f 13/17/46 5/40/45 10/63/73 38/46/74
s off
f 16/62/75 44/56/76 48/61/77 22/64/78
s 9
f 45/57/65 49/65/79 27/66/80 26/58/66
f 50/67/81 51/68/82 28/69/83 29/70/84
s 6
f 47/60/67 20/71/29 22/64/28 48/61/68
s 9
f 49/65/79 52/72/85 30/73/86 27/66/80
f 52/72/85 54/75/87 31/76/88 30/73/86
s off
f 22/26/89 35/41/90 14/18/91 16/20/92
s 3
f 3/3/52 38/46/51 56/78/93 11/13/94
s 9
f 57/79/95 50/67/81 29/70/84 33/80/96
f 54/75/87 58/81/97 34/82/98 31/76/88
f 58/81/97 57/79/95 33/80/96 34/82/98
s off
f 51/83/99 36/84/100 19/45/101 18/22/102 28/32/103
s 8
f 38/46/74 10/63/73 41/85/104 56/78/105
s 3
f 11/13/94 56/78/93 59/86/106 23/27/107
s 6
f 47/60/67 55/77/70 21/25/30 20/24/29
s 3
f 23/27/107 59/86/106 43/55/108 39/47/109
s 8
f 56/78/105 41/85/104 40/87/110 59/86/111
f 59/86/111 40/87/110 32/88/112 43/55/113
s off
f 44/56/114 53/74/115 46/59/116 48/61/117
s 4
f 43/55/63 32/88/24 14/89/23 53/74/64
s off
f 53/74/118 14/89/119 35/90/120 46/59/121
s 6
f 21/91/30 55/77/70 46/59/69 35/90/31
s 2
f 41/51/57 10/12/14 4/11/13 12/52/58 36/92/122 51/93/123 50/94/124 57/95/125 58/96/126 54/97/127 52/98/128 49/99/129 45/100/130 42/101/131 37/102/132
s 1
f 7/103/133 9/15/134 2/2/2 1/1/1
s off
f 61/104/135 62/105/136 60/106/137 63/107/138
f 65/108/139 66/109/140 64/110/141 67/111/142
s 12
f 69/112/143 70/113/144 68/114/145 72/115/146
s off
f 63/107/147 60/106/148 71/116/149 104/117/150
s 13
f 74/118/151 75/119/152 73/120/153 82/121/154
s off
f 78/122/155 76/123/156 77/124/157 96/125/158
f 62/105/159 61/104/160 79/126/161 103/127/162
s 13
f 82/121/154 80/128/163 81/129/164 74/118/151
s 14
f 72/115/165 68/114/166 83/130/167 111/131/168
s 15
f 84/132/169 86/133/170 87/134/171 85/135/172
s off
f 67/111/173 64/110/174 88/136/175 125/137/176
s 16
f 84/132/177 85/135/178 89/138/179 101/139/180
s 17
f 93/140/181 87/134/182 86/133/183 102/141/184
s 18
f 90/142/185 91/143/186 92/144/187
f 94/145/188 90/142/185 92/144/187
f 91/143/186 95/146/189 92/144/187
f 97/147/190 94/145/188 92/144/187
f 95/146/189 98/148/191 92/144/187
f 99/149/192 97/147/190 92/144/187
f 98/148/191 100/150/193 92/144/187
f 100/150/193 99/149/192 92/144/187
s 19
f 101/139/194 89/138/195 105/151/196 116/152/197
s off
f 107/153/198 108/154/199 106/155/200 112/156/201
s 20
f 102/141/202 122/157/203 109/158/204 93/140/205
s 13
f 82/121/206 73/120/207 110/159/208 123/160/209
s off
f 114/161/210 115/162/211 113/163/212 143/164/213
s 13
f 75/119/214 74/118/215 117/165/216 132/166/217
s off
f 120/167/218 118/168/219 119/169/220 142/170/221
s 23
f 116/152/222 105/151/223 121/171/224 129/172/225
s 13
f 80/128/163 82/121/206 123/160/209 138/173/226
s 24
f 122/157/227 130/174/228 124/175/229 109/158/230
s 25
f 129/172/231 121/171/232 124/175/233 130/174/234
s 26
f 127/176/235 128/177/236 126/178/237 131/179/238
s 27
f 111/131/239 83/130/240 133/180/241 149/181/242
s off
f 112/156/243 106/155/244 134/182/245 153/183/246
s 28
f 137/184/247 135/185/248 136/186/249 150/187/250
s 29
f 141/188/251 139/189/252 140/190/253 146/191/254
s off
f 108/154/255 107/153/256 144/192/257 152/193/258
f 104/117/259 71/116/260 145/194/261 155/195/262
f 103/196/263 79/197/264 147/198/265 156/199/266
s 30
f 131/179/267 126/178/268 148/200/269 164/201/270
s 31
f 128/177/271 127/176/272 151/202/273 163/203/274
s off
f 125/137/275 88/136/276 154/204/277 167/205/278
f 159/206/279 157/207/280 158/208/281 168/209/282
s 32
f 149/181/283 133/180/284 160/210/285 166/211/286
s 13
f 123/160/287 110/159/288 161/212/289 173/213/290
s 34
f 146/191/291 140/190/292 162/214/293 165/215/294
s 35
f 166/211/295 160/210/296 165/215/297 162/214/298
s off
f 142/216/299 119/217/300 169/218/301 190/219/302
s 36
f 171/220/303 172/221/304 170/222/305 197/223/306
s off
f 156/199/307 147/198/308 174/224/309 178/225/310
s 37
f 150/226/311 136/227/312 175/228/313 196/229/314
s off
f 176/230/315 177/231/316 60/106/317 62/105/318
f 179/232/319 180/233/320 64/110/321 66/109/322
f 153/183/323 134/182/324 181/234/325 218/235/326
f 182/236/327 183/237/328 61/104/329 63/107/330
s 38
f 184/238/331 185/239/332 180/233/333 179/232/334
s 39
f 186/240/335 187/241/336 188/242/337 78/122/338
s off
f 189/243/339 76/123/340 78/122/341 188/242/342
f 152/244/343 144/245/344 191/246/345 219/247/346
s 40
f 68/114/347 70/113/348 76/123/349 189/243/350
s off
f 192/248/351 193/249/352 65/108/353 67/111/354
s 12
f 177/231/355 176/230/356 69/112/143 72/115/146
s 41
f 73/120/357 75/119/358 193/249/359 192/248/360
s 38
f 185/239/332 184/238/331 194/250/361 195/251/362
f 195/251/362 194/250/361 183/237/363 182/236/364
s 13
f 81/129/164 80/128/163 115/162/365 120/167/366
s 39
f 187/252/336 186/253/335 198/254/367 199/255/368
s 42
f 163/256/369 151/257/370 200/258/371 235/259/372
s off
f 114/161/373 118/168/374 120/167/375 115/162/376
s 13
f 173/213/377 161/212/378 201/260/379 227/261/380
s 39
f 187/241/336 202/262/381 203/263/382 188/242/337
f 204/264/383 186/240/335 78/122/338 96/125/384
s off
f 205/265/385 189/243/386 188/242/387 203/263/388
f 177/231/389 206/266/390 71/116/391 60/106/392
s 44
f 207/267/393 137/184/394 118/168/395 114/161/396
s 13
f 210/268/397 208/269/398 209/270/399 225/271/400
s off
f 211/272/401 176/230/402 62/105/403 103/127/404
s 46
f 213/273/405 214/274/406 212/275/407 248/276/408
s 42
f 151/257/370 215/277/409 216/278/410 200/258/371
s 40
f 83/130/411 68/114/347 189/243/350 205/265/412
f 70/113/348 141/279/413 77/124/414 76/123/349
s off
f 85/135/415 87/134/416 91/143/417 90/142/418
f 89/138/419 85/135/420 90/142/421 94/145/422
f 87/134/423 93/140/424 95/146/425 91/143/426
s 39
f 202/280/381 187/252/336 199/255/368 217/281/427
s off
f 220/282/428 182/236/429 63/107/430 104/117/431
s 39
f 199/255/368 198/254/367 221/283/432 222/284/433
f 186/253/335 204/285/383 223/286/434 198/254/367
s 14
f 206/266/435 177/231/436 72/115/165 111/131/168
s off
f 183/237/437 224/287/438 79/126/439 61/104/440
f 105/151/441 89/138/442 94/145/443 97/147/444
f 93/140/445 109/158/446 98/148/447 95/146/448
s 47
f 176/230/449 211/272/450 139/288/451 69/112/452
f 69/112/452 139/288/451 141/279/453 70/113/454
s off
f 180/233/455 226/289/456 88/136/457 64/110/458
f 121/171/459 105/151/460 97/147/461 99/149/462
f 109/158/463 124/175/464 100/150/465 98/148/466
s 48
f 228/290/467 229/291/468 106/155/469 108/154/470
s 38
f 185/239/332 230/292/471 226/289/472 180/233/333
s 49
f 231/293/473 135/185/474 137/184/475 207/267/476
s 13
f 208/269/398 232/294/477 233/295/478 209/270/399
s off
f 234/296/479 179/232/480 66/109/481 159/297/482
f 124/175/483 121/171/484 99/149/485 100/150/486
s 39
f 217/281/427 199/255/368 222/284/433 236/298/487
f 198/254/367 223/286/434 237/299/488 221/283/432
s 38
f 238/300/489 184/238/331 179/232/334 234/296/490
f 239/301/491 195/251/492 182/236/493 220/282/494
s 42
f 242/302/495 240/303/496 241/304/497 256/305/498
s off
f 65/108/499 157/306/500 159/297/501 66/109/502
s 38
f 194/250/503 243/307/504 224/287/505 183/237/506
f 230/292/471 185/239/332 195/251/492 239/301/491
s off
f 244/308/507 192/248/508 67/111/509 125/137/510
s 41
f 110/159/511 73/120/357 192/248/360 244/308/512
s 49
f 229/291/513 228/290/514 135/185/474 231/293/473
s 38
f 184/238/331 238/300/489 243/307/504 194/250/503
s off
f 193/249/515 245/309/516 157/306/517 65/108/518
s 41
f 75/119/358 132/166/519 245/309/520 193/249/359
s 13
f 227/261/521 201/260/522 225/271/523 209/270/524
s 52
f 126/178/525 128/177/526 107/153/527 112/156/528
s 53
f 197/223/529 170/222/530 246/310/531 261/311/532
s 54
f 196/229/533 175/228/534 247/312/535 258/313/536
s 13
f 80/128/163 138/173/226 113/163/537 115/162/365
s 39
f 249/314/538 217/281/427 236/298/487 250/315/539
f 223/286/434 251/316/540 252/317/541 237/299/488
s 13
f 253/318/542 81/129/164 120/167/366 142/170/543
f 254/319/544 227/261/521 209/270/524 233/295/478
s 39
f 255/320/545 202/280/381 217/281/427 249/314/538
f 204/285/383 257/321/546 251/316/540 223/286/434
s 13
f 81/129/164 253/318/542 117/165/216 74/118/215
s 44
f 172/221/547 207/267/393 114/161/396 143/164/548
s 39
f 202/262/381 255/322/545 259/323/549 203/263/382
s 44
f 137/184/394 150/187/550 119/169/551 118/168/395
s 39
f 257/324/546 204/325/383 96/326/384 260/327/552
s off
f 262/328/553 205/265/554 203/263/555 259/323/556
s 26
f 263/329/557 264/330/558 127/176/235 131/179/238
s off
f 77/331/559 265/332/560 260/327/561 96/326/562
s 26
f 266/333/563 267/334/564 264/330/558 263/329/557
s 40
f 133/180/565 83/130/411 205/265/412 262/328/566
s off
f 218/235/567 181/234/568 268/335/569 288/336/570
s 40
f 141/188/413 146/191/571 265/332/572 77/331/414
s off
f 270/337/573 271/338/574 269/339/575 273/340/576
f 219/247/577 191/246/578 272/341/579 287/342/580
s 39
f 274/343/581 249/314/538 250/315/539 275/344/582
f 251/316/540 276/345/583 277/346/584 252/317/541
s 55
f 171/220/585 231/293/586 207/267/587 172/221/588
s 56
f 279/347/589 280/348/590 278/349/591 295/350/592
s 57
f 261/311/593 246/310/594 258/313/595 247/312/596
s 48
f 229/291/468 281/351/597 134/182/598 106/155/469
s 39
f 276/345/583 274/343/581 275/344/582 277/346/584
s 48
f 282/352/599 228/290/467 108/154/470 152/193/600
s 55
f 281/351/601 229/291/602 231/293/586 171/220/585
s 27
f 283/353/603 206/266/604 111/131/239 149/181/242
s 26
f 284/354/605 285/355/606 267/334/564 266/333/563
s 28
f 228/290/607 282/352/608 136/186/249 135/185/248
s 29
f 211/356/609 286/357/610 140/190/253 139/189/252
s off
f 206/266/611 283/353/612 145/194/613 71/116/614
s 52
f 148/200/615 126/178/525 112/156/528 153/183/616
s off
f 286/357/617 211/356/618 103/196/619 156/199/620
s 39
f 289/358/621 255/320/545 249/314/538 274/343/581
f 257/321/546 290/359/622 276/345/583 251/316/540
s 52
f 128/177/526 163/203/623 144/192/624 107/153/527
s 58
f 200/258/625 216/278/626 291/360/627 301/361/628
s off
f 292/362/629 220/282/630 104/117/631 155/195/632
s 26
f 293/363/633 294/364/634 285/355/606 284/354/605
s off
f 224/365/635 296/366/636 147/198/637 79/197/638
s 58
f 216/278/626 256/305/639 297/367/640 291/360/627
s 38
f 298/368/641 239/301/642 220/282/643 292/362/644
s 39
f 290/359/622 289/358/621 274/343/581 276/345/583
s off
f 288/336/645 268/335/646 287/342/647 272/341/648
s 38
f 243/369/649 299/370/650 296/366/651 224/365/652
s 39
f 255/322/545 289/371/621 300/372/653 259/323/549
f 290/373/622 257/324/546 260/327/552 302/374/654
s 58
f 256/305/639 241/304/655 303/375/656 297/367/640
s off
f 304/376/657 262/328/658 259/323/659 300/372/660
f 265/332/661 305/377/662 302/374/663 260/327/664
s 40
f 160/210/665 133/180/565 262/328/566 304/376/666
s 30
f 214/274/667 263/329/668 131/179/267 164/201/270
s 40
f 146/191/571 165/215/669 305/377/670 265/332/572
s 38
f 306/378/671 230/292/471 239/301/642 298/368/641
s 31
f 264/330/672 215/379/673 151/202/273 127/176/272
s 38
f 238/380/489 307/381/674 299/370/650 243/369/649
s 30
f 213/273/675 266/333/676 263/329/668 214/274/667
s off
f 226/289/677 308/382/678 154/204/679 88/136/680
s 38
f 230/292/471 306/378/671 308/382/681 226/289/472
s off
f 311/383/682 234/384/683 159/206/684 168/209/685
s 38
f 307/381/674 238/380/489 234/384/490 311/383/686
s 31
f 267/334/687 242/385/688 215/379/673 264/330/672
s 41
f 161/212/689 110/159/511 244/308/512 313/386/690
s off
f 313/386/691 244/308/692 125/137/693 167/205/694
s 61
f 314/387/695 295/350/696 301/361/697 291/360/698
s 39
f 289/371/621 290/373/622 302/374/654 300/372/653
s 41
f 132/388/519 210/268/699 315/389/700 245/390/520
s off
f 245/390/701 315/389/702 158/208/703 157/207/704
f 305/377/705 304/376/706 300/372/707 302/374/708
s 40
f 165/215/669 160/210/665 304/376/666 305/377/670
s 30
f 316/391/709 284/354/710 266/333/676 213/273/675
s 61
f 317/392/711 314/387/695 291/360/698 297/367/712
s 31
f 285/355/713 240/393/714 242/385/688 267/334/687
s 32
f 319/394/715 283/353/716 149/181/283 166/211/286
s 34
f 286/357/717 320/395/718 162/214/293 140/190/292
s 61
f 321/396/719 317/392/711 297/367/712 303/375/720
s 30
f 322/397/721 293/363/722 284/354/710 316/391/709
s 13
f 323/398/723 138/173/226 123/160/287 173/213/290
s 31
f 294/364/724 324/399/725 240/393/714 285/355/713
s 13
f 253/400/542 232/294/477 208/269/726 117/401/727
f 138/173/226 323/398/723 325/402/728 113/163/537
f 232/294/477 253/400/542 142/216/543 190/219/729
s off
f 283/353/730 319/394/731 326/403/732 145/194/733
f 327/404/734 143/164/735 113/163/736 325/402/737
f 320/395/738 286/357/739 156/199/740 178/225/741
s 44
f 170/222/742 172/221/547 143/164/548 327/404/743
s off
f 328/405/744 155/195/745 145/194/746 326/403/747
s 35
f 320/395/748 319/394/749 166/211/295 162/214/298
s off
f 329/406/750 292/362/751 155/195/752 328/405/753
s 15
f 222/284/754 221/283/755 86/133/170 84/132/169
s 44
f 150/226/550 196/229/756 169/218/757 119/217/551
s off
f 296/366/758 330/407/759 174/224/760 147/198/761
s 38
f 331/408/762 298/368/763 292/362/764 329/406/765
f 299/370/766 332/409/767 330/407/768 296/366/769
s 16
f 236/298/770 222/284/771 84/132/177 101/139/180
s 17
f 221/283/772 237/299/773 102/141/184 86/133/183
s off
f 319/394/774 320/395/775 178/225/776 326/403/777
s 36
f 333/410/778 281/351/779 171/220/303 197/223/306
s 38
f 334/411/780 306/378/671 298/368/763 331/408/762
s off
f 174/224/781 328/405/782 326/403/783 178/225/784
s 38
f 307/381/674 335/412/785 332/409/767 299/370/766
s 37
f 282/413/786 336/414/787 175/228/313 136/227/312
s 48
f 281/351/597 333/410/788 181/234/789 134/182/598
s off
f 330/407/790 329/406/791 328/405/792 174/224/793
s 48
f 336/414/794 282/413/599 152/244/600 219/247/795
s 38
f 332/409/796 331/408/797 329/406/798 330/407/799
f 306/378/671 334/411/780 337/415/800 308/382/681
s off
f 308/382/801 337/415/802 338/416/803 154/204/804
s 19
f 250/315/805 236/298/806 101/139/194 116/152/197
s 20
f 237/299/807 252/317/808 122/157/203 102/141/202
s 52
f 280/348/809 148/200/615 153/183/616 218/235/810
s 38
f 335/412/785 307/381/674 311/383/686 339/417/811
s off
f 339/417/812 311/383/813 168/209/814 340/418/815
f 341/419/816 167/205/817 154/204/818 338/416/819
s 52
f 163/256/623 235/259/820 191/246/821 144/245/624
s 41
f 201/260/822 161/212/689 313/386/690 342/420/823
s off
f 158/208/824 343/421/825 340/418/826 168/209/827
f 342/420/828 313/386/829 167/205/830 341/419/831
s 41
f 210/268/699 225/271/832 344/422/833 315/389/700
s off
f 315/389/834 344/422/835 343/421/836 158/208/837
s 46
f 279/347/838 164/201/839 148/200/840 280/348/841
s 38
f 335/412/785 334/411/780 331/408/797 332/409/796
s 23
f 275/344/842 250/315/843 116/152/222 129/172/225
s 24
f 252/317/844 277/346/845 130/174/228 122/157/227
s 46
f 212/275/407 214/274/406 164/201/839 279/347/838
s 38
f 334/411/780 335/412/785 339/417/811 337/415/800
s off
f 337/415/846 339/417/847 340/418/848 338/416/849
s 25
f 277/346/850 275/344/851 129/172/231 130/174/234
s 13
f 254/319/544 323/398/723 173/213/377 227/261/380
s off
f 343/421/852 341/419/853 338/416/854 340/418/855
s 41
f 225/271/832 201/260/822 342/420/823 344/422/833
s off
f 344/422/856 342/420/857 341/419/858 343/421/859
s 42
f 242/302/495 256/305/498 216/278/410 215/277/409
s 13
f 323/398/723 254/319/544 271/338/860 325/402/728
s 46
f 345/423/861 316/391/862 213/273/405 248/276/408
s 13
f 233/295/478 232/294/477 190/219/729 269/339/863
s off
f 270/337/864 327/404/865 325/402/866 271/338/867
s 44
f 246/310/868 170/222/742 327/404/743 270/337/869
s off
f 169/218/870 273/340/871 269/339/872 190/219/873
s 44
f 196/229/756 258/313/874 273/340/875 169/218/757
s 46
f 346/424/876 322/397/877 316/391/862 345/423/861
s 42
f 324/425/878 347/426/879 241/304/497 240/303/496
s 53
f 348/427/880 333/410/881 197/223/529 261/311/532
s 54
f 336/414/882 349/428/883 247/312/535 175/228/534
s 13
f 254/319/544 233/295/478 269/339/863 271/338/860
s 44
f 258/313/874 246/310/868 270/337/869 273/340/875
s 48
f 333/410/788 348/427/884 268/335/885 181/234/789
f 349/428/886 336/414/794 219/247/795 287/342/887
s 52
f 278/349/888 280/348/809 218/235/810 288/336/889
f 235/259/820 350/429/890 272/341/891 191/246/821
s 58
f 200/258/625 301/361/628 350/429/892 235/259/893
s 57
f 349/428/894 348/427/895 261/311/593 247/312/596
s 56
f 314/387/896 212/275/897 279/347/589 295/350/592
s 48
f 348/427/884 349/428/886 287/342/887 268/335/885
s 56
f 317/392/898 248/276/899 212/275/897 314/387/896
s 52
f 350/429/890 278/349/888 288/336/889 272/341/891
s 61
f 301/361/697 295/350/696 278/349/900 350/429/901
s 56
f 321/396/902 345/423/903 248/276/899 317/392/898
f 351/430/904 346/424/905 345/423/903 321/396/902
s 58
f 347/426/906 352/431/907 303/375/656 241/304/655
s 61
f 352/431/908 351/430/909 321/396/719 303/375/720
s 13
f 132/388/910 117/401/727 208/269/726 210/268/911 318/432/912 310/433/913 309/434/914 312/435/915
s off
f 347/426/916 324/399/917 294/364/918 293/363/919 322/397/920 346/424/921 351/430/922 352/431/923
